<svg width="15" height="15" viewBox="0 0 15 15" fill="none" xmlns="http://www.w3.org/2000/svg">
<path d="M14.0625 15C12.3681 15 10.684 14.5833 9.01042 13.75C7.33681 12.9167 5.83333 11.8333 4.5 10.5C3.16667 9.16667 2.08333 7.66319 1.25 5.98958C0.416667 4.31597 0 2.63194 0 0.9375C0 0.673611 0.0902778 0.451389 0.270833 0.270833C0.451389 0.0902778 0.673611 0 0.9375 0H3.85417C4.04861 0 4.21875 0.0659722 4.36458 0.197917C4.51042 0.329861 4.60417 0.506944 4.64583 0.729167L5.20833 3.35417C5.23611 3.54861 5.23264 3.72569 5.19792 3.88542C5.16319 4.04514 5.09028 4.18056 4.97917 4.29167L2.89583 6.39583C3.67361 7.6875 4.54514 8.8125 5.51042 9.77083C6.47569 10.7292 7.56944 11.5417 8.79167 12.2083L10.7708 10.1667C10.9097 10.0139 11.0694 9.90625 11.25 9.84375C11.4306 9.78125 11.6111 9.77083 11.7917 9.8125L14.2708 10.3542C14.4792 10.3958 14.6528 10.5 14.7917 10.6667C14.9306 10.8333 15 11.0278 15 11.25V14.0625C15 14.3264 14.9097 14.5486 14.7292 14.7292C14.5486 14.9097 14.3264 15 14.0625 15Z" fill="#6C6C6C"/>
</svg>
